<svg width="24" height="24" viewBox="0 0 24 24" fill="none" xmlns="http://www.w3.org/2000/svg">
<path d="M16 21.8338C13.7351 23.3179 9.77882 20.3534 7.1635 15.2123C4.54817 10.0713 4.26413 4.70052 6.52907 3.21643M13.2782 20.5143C11.5795 21.6274 9.63762 18.7322 7.67613 14.8764C5.71463 11.0206 4.47634 7.66437 6.17505 6.5513" stroke="#393939" stroke-width="2"/>
<path d="M8.68351 1.21645C9.20872 1.21644 9.2098 1.59517 9.27768 2.30355L9.59895 5.65639C9.66874 6.3848 9.15025 6.99027 8.44591 7.00284L4.50002 7C4.01807 7 4 7 4.01809 5.75667C4.23998 3.41084 5.00416 1.2166 7.28221 1.21644C7.72566 1.21641 8.1583 1.21646 8.68351 1.21645Z" fill="#393939"/>
<path d="M4.16657 5.05661C4.16192 4.56189 4.44907 4.11915 4.90346 3.92043L7.47416 2.79618C8.23433 2.46373 9.13611 2.92976 9.3107 3.74526L9.91406 6.56359C10.0433 7.16737 9.72015 7.75728 9.15169 7.97507C9.10725 7.9921 9.06274 8.00924 9.01994 8.03007L6.06428 9.46872C6.02149 9.48955 5.97738 9.5083 5.931 9.51898C5.1054 9.70912 4.20002 8.61626 4.19198 7.76022L4.16657 5.05661Z" fill="#393939"/>
<path d="M19.6506 21.244C20.0831 20.7188 20.0426 20.0827 19.9075 19.9861C18.8403 19.2224 16.6445 17.517 16.6445 17.517C16.0509 17.0922 15.2691 17.2401 14.9061 17.8459L12.9789 21.0626C12.6333 21.6394 12.3597 22.5163 13.6481 23.0088C14.9364 23.5012 18.0608 23.1747 19.5122 21.4121C19.5122 21.4121 19.5966 21.3097 19.6506 21.244Z" fill="#393939"/>
<path d="M14.38 22.511C14.4239 22.5292 14.4662 22.5511 14.5084 22.5729C14.9212 22.7863 15.4155 22.7472 15.7949 22.4659L18.0503 20.7938C18.7173 20.2993 18.7661 19.2825 18.1496 18.723L16.0193 16.7895C15.565 16.3771 14.8984 16.3613 14.4266 16.7411C14.3852 16.7744 14.3436 16.8078 14.2991 16.8369L11.0668 18.9562C11.0223 18.9854 10.9793 19.0172 10.9437 19.0567C10.3985 19.6629 10.9572 20.9073 11.6617 21.3742C11.7013 21.4005 11.7441 21.4212 11.788 21.4394L14.38 22.511Z" fill="#393939"/>
</svg>
