<svg width="24" height="24" viewBox="0 0 24 24" fill="none" xmlns="http://www.w3.org/2000/svg">
<g clip-path="url(#clip0_10_1924)">
<path d="M6.5 3C7.84454 3 9.1954 3.83924 10.2578 5.47363C11.3141 7.09865 12 9.40346 12 12C12 14.5965 11.3141 16.9013 10.2578 18.5264C9.1954 20.1608 7.84454 21 6.5 21C5.15546 21 3.8046 20.1608 2.74219 18.5264C1.68592 16.9013 1 14.5965 1 12C1 9.40346 1.68592 7.09865 2.74219 5.47363C3.8046 3.83924 5.15546 3 6.5 3Z" stroke="#393939" stroke-width="2"/>
<ellipse cx="8.5" cy="12" rx="3.5" ry="5" fill="#393939"/>
<path d="M17.5 3C18.8445 3 20.1954 3.83924 21.2578 5.47363C22.3141 7.09865 23 9.40346 23 12C23 14.5965 22.3141 16.9013 21.2578 18.5264C20.1954 20.1608 18.8445 21 17.5 21C16.1555 21 14.8046 20.1608 13.7422 18.5264C12.6859 16.9013 12 14.5965 12 12C12 9.40346 12.6859 7.09865 13.7422 5.47363C14.8046 3.83924 16.1555 3 17.5 3Z" stroke="#393939" stroke-width="2"/>
<ellipse cx="19.5" cy="12" rx="3.5" ry="5" fill="#393939"/>
</g>
<defs>
<clipPath id="clip0_10_1924">
<rect width="24" height="24" fill="white"/>
</clipPath>
</defs>
</svg>
