<svg width="24" height="24" viewBox="0 0 24 24" fill="none" xmlns="http://www.w3.org/2000/svg">
<g clip-path="url(#clip0_1_222)">
<path d="M12.6228 3C14.4188 3 16.1798 3.48449 17.7111 4.39992C19.2424 5.31534 20.4844 6.62603 21.2997 8.18709C22.1151 9.74814 22.472 11.4987 22.3311 13.2454C22.1902 14.992 21.5569 16.6665 20.5013 18.084C19.4456 19.5014 18.0088 20.6064 16.3495 21.2769C14.6903 21.9473 12.8733 22.1571 11.0994 21.883C9.32557 21.609 7.66396 20.8617 6.2983 19.7239C4.93264 18.586 3.91613 17.1019 3.36114 15.4357" stroke="#393939" stroke-width="2" stroke-linecap="round"/>
<path d="M11.3611 7V13.1176L15.3611 15" stroke="#393939" stroke-width="2" stroke-linecap="round" stroke-linejoin="round"/>
<path d="M1.98084 11.8598C2.18008 11.1162 3.10954 10.8672 3.65387 11.4115L6.82029 14.5779C7.36462 15.1222 7.11557 16.0517 6.372 16.2509L2.04659 17.4099C1.30302 17.6092 0.62261 16.9288 0.821849 16.1852L1.98084 11.8598Z" fill="#393939"/>
</g>
<defs>
<clipPath id="clip0_1_222">
<rect width="24" height="24" fill="white"/>
</clipPath>
</defs>
</svg>
