<svg width="24" height="24" viewBox="0 0 24 24" fill="none" xmlns="http://www.w3.org/2000/svg">
<g clip-path="url(#clip0_1_221)">
<path d="M12 0C16.7049 -6.75417e-05 20.5 4 20.5 8.5C20.5 12.8398 19.1047 16.2494 12.7266 23.2139C12.3361 23.6403 11.6621 23.6412 11.2705 23.2158C4.90659 16.304 3.49999 12.8389 3.5 8.5C3.50001 4 7.29514 7.18662e-05 12 0ZM12 4C9.79086 4 8 5.79086 8 8C8 10.2091 9.79086 12 12 12C14.2091 12 16 10.2091 16 8C16 5.79086 14.2091 4 12 4Z" fill="#393939"/>
</g>
<defs>
<clipPath id="clip0_1_221">
<rect width="24" height="24" fill="white"/>
</clipPath>
</defs>
</svg>
