<svg width="24" height="24" viewBox="0 0 24 24" fill="none" xmlns="http://www.w3.org/2000/svg">
<g clip-path="url(#clip0_3_40)">
<path d="M7.44781 21.548C7.36107 21.6041 7.26713 21.6498 7.16656 21.6769L1.26129 23.2697C0.516646 23.4705 -0.165126 22.7877 0.0357056 22.0431L1.62848 16.1378C1.6557 16.0369 1.69903 15.9416 1.75543 15.8546L7.44781 21.548ZM20.5562 8.47375L8.87946 20.1505L3.15289 14.424L14.8297 2.74719L20.5562 8.47375ZM17.2847 0.293091C17.6753 -0.0974335 18.3083 -0.0974335 18.6988 0.293091L23.0113 4.60559C23.4018 4.99612 23.4018 5.62913 23.0113 6.01965L21.9703 7.05969L16.2437 1.33313L17.2847 0.293091Z" fill="#82C3C5"/>
</g>
<defs>
<clipPath id="clip0_3_40">
<rect width="24" height="24" fill="white"/>
</clipPath>
</defs>
</svg>
