<svg width="24" height="24" viewBox="0 0 24 24" fill="none" xmlns="http://www.w3.org/2000/svg">
<g clip-path="url(#clip0_1_226)">
<path d="M23 0C23.5523 0 24 0.447715 24 1V23C24 23.5523 23.5523 24 23 24H1C0.447715 24 0 23.5523 0 23V1C2.57702e-07 0.447715 0.447715 0 1 0H23ZM4 4L10.5615 12.5098L4.13379 20H5.79199L11.3594 13.5449L16.3369 20H20.0908L13.5068 11.4609L20.0908 4H18.4326L12.7148 10.4326L7.75488 4H4ZM7.26367 5L18.0576 19H16.8291L6.03418 5H7.26367Z" fill="#393939"/>
</g>
<defs>
<clipPath id="clip0_1_226">
<rect width="24" height="24" fill="white"/>
</clipPath>
</defs>
</svg>
